<svg xmlns="http://www.w3.org/2000/svg" width="1335.001" height="654" viewBox="0 0 1335.001 654">
  <path id="Subtraction_3" data-name="Subtraction 3" d="M1318,654H149a83.6,83.6,0,0,1-16.727-1.686,82.538,82.538,0,0,1-29.679-12.489,83.246,83.246,0,0,1-30.072-36.518,82.593,82.593,0,0,1-4.836-15.58A83.6,83.6,0,0,1,66,571V441H96a35.971,35.971,0,0,0,36-36V249a35.97,35.97,0,0,0-36-36H66V83a83.6,83.6,0,0,1,1.686-16.727A82.535,82.535,0,0,1,80.175,36.594,83.241,83.241,0,0,1,116.693,6.522a82.587,82.587,0,0,1,15.58-4.836A83.621,83.621,0,0,1,149,0H1318a83.62,83.62,0,0,1,16.727,1.686,82.551,82.551,0,0,1,29.679,12.489,83.247,83.247,0,0,1,30.072,36.517,82.593,82.593,0,0,1,4.836,15.58A83.6,83.6,0,0,1,1401,83V571a83.6,83.6,0,0,1-1.686,16.727,82.54,82.54,0,0,1-12.489,29.679,83.245,83.245,0,0,1-36.518,30.072,82.593,82.593,0,0,1-15.58,4.836A83.6,83.6,0,0,1,1318,654Z" transform="translate(-66)" fill="#fff"/>
</svg>
