<svg id="visual" viewBox="0 0 960 300" width="960" height="300" xmlns="http://www.w3.org/2000/svg" xmlns:xlink="http://www.w3.org/1999/xlink" version="1.1"><path d="M0 208L22.8 203.8C45.7 199.7 91.3 191.3 137 191C182.7 190.7 228.3 198.3 274 202.7C319.7 207 365.3 208 411.2 204.8C457 201.7 503 194.3 548.8 195.3C594.7 196.3 640.3 205.7 686 209.5C731.7 213.3 777.3 211.7 823 206.8C868.7 202 914.3 194 937.2 190L960 186L960 301L937.2 301C914.3 301 868.7 301 823 301C777.3 301 731.7 301 686 301C640.3 301 594.7 301 548.8 301C503 301 457 301 411.2 301C365.3 301 319.7 301 274 301C228.3 301 182.7 301 137 301C91.3 301 45.7 301 22.8 301L0 301Z" fill="#4facf7"></path><path d="M0 202L22.8 205.3C45.7 208.7 91.3 215.3 137 221C182.7 226.7 228.3 231.3 274 233.7C319.7 236 365.3 236 411.2 234.3C457 232.7 503 229.3 548.8 225.7C594.7 222 640.3 218 686 218.5C731.7 219 777.3 224 823 223.8C868.7 223.7 914.3 218.3 937.2 215.7L960 213L960 301L937.2 301C914.3 301 868.7 301 823 301C777.3 301 731.7 301 686 301C640.3 301 594.7 301 548.8 301C503 301 457 301 411.2 301C365.3 301 319.7 301 274 301C228.3 301 182.7 301 137 301C91.3 301 45.7 301 22.8 301L0 301Z" fill="#2b9dfc"></path><path d="M0 241L22.8 239.8C45.7 238.7 91.3 236.3 137 234.2C182.7 232 228.3 230 274 230C319.7 230 365.3 232 411.2 230.3C457 228.7 503 223.3 548.8 220.7C594.7 218 640.3 218 686 222.5C731.7 227 777.3 236 823 240.5C868.7 245 914.3 245 937.2 245L960 245L960 301L937.2 301C914.3 301 868.7 301 823 301C777.3 301 731.7 301 686 301C640.3 301 594.7 301 548.8 301C503 301 457 301 411.2 301C365.3 301 319.7 301 274 301C228.3 301 182.7 301 137 301C91.3 301 45.7 301 22.8 301L0 301Z" fill="#008cff"></path><path d="M0 257L22.8 259.2C45.7 261.3 91.3 265.7 137 267.2C182.7 268.7 228.3 267.3 274 264.5C319.7 261.7 365.3 257.3 411.2 256.7C457 256 503 259 548.8 257C594.7 255 640.3 248 686 249.3C731.7 250.7 777.3 260.3 823 263.2C868.7 266 914.3 262 937.2 260L960 258L960 301L937.2 301C914.3 301 868.7 301 823 301C777.3 301 731.7 301 686 301C640.3 301 594.7 301 548.8 301C503 301 457 301 411.2 301C365.3 301 319.7 301 274 301C228.3 301 182.7 301 137 301C91.3 301 45.7 301 22.8 301L0 301Z" fill="#007aff"></path><path d="M0 278L22.8 277.2C45.7 276.3 91.3 274.7 137 274.3C182.7 274 228.3 275 274 275.3C319.7 275.7 365.3 275.3 411.2 276.3C457 277.3 503 279.7 548.8 280C594.7 280.3 640.3 278.7 686 276.2C731.7 273.7 777.3 270.3 823 268.5C868.7 266.7 914.3 266.3 937.2 266.2L960 266L960 301L937.2 301C914.3 301 868.7 301 823 301C777.3 301 731.7 301 686 301C640.3 301 594.7 301 548.8 301C503 301 457 301 411.2 301C365.3 301 319.7 301 274 301C228.3 301 182.7 301 137 301C91.3 301 45.7 301 22.8 301L0 301Z" fill="#0066ff"></path></svg>