<svg id="visual" viewBox="0 0 960 300" width="960" height="300" xmlns="http://www.w3.org/2000/svg" xmlns:xlink="http://www.w3.org/1999/xlink" version="1.1"><path d="M0 202L22.8 203.7C45.7 205.3 91.3 208.7 137 206.2C182.7 203.7 228.3 195.3 274 190.5C319.7 185.7 365.3 184.3 411.2 190.5C457 196.7 503 210.3 548.8 217C594.7 223.7 640.3 223.3 686 221.3C731.7 219.3 777.3 215.7 823 215.7C868.7 215.7 914.3 219.3 937.2 221.2L960 223L960 301L937.2 301C914.3 301 868.7 301 823 301C777.3 301 731.7 301 686 301C640.3 301 594.7 301 548.8 301C503 301 457 301 411.2 301C365.3 301 319.7 301 274 301C228.3 301 182.7 301 137 301C91.3 301 45.7 301 22.8 301L0 301Z" fill="#4facf7"></path><path d="M0 221L22.8 219.7C45.7 218.3 91.3 215.7 137 212.3C182.7 209 228.3 205 274 207.5C319.7 210 365.3 219 411.2 224.7C457 230.3 503 232.7 548.8 231.3C594.7 230 640.3 225 686 220C731.7 215 777.3 210 823 206.7C868.7 203.3 914.3 201.7 937.2 200.8L960 200L960 301L937.2 301C914.3 301 868.7 301 823 301C777.3 301 731.7 301 686 301C640.3 301 594.7 301 548.8 301C503 301 457 301 411.2 301C365.3 301 319.7 301 274 301C228.3 301 182.7 301 137 301C91.3 301 45.7 301 22.8 301L0 301Z" fill="#2b9dfc"></path><path d="M0 222L22.8 225.3C45.7 228.7 91.3 235.3 137 240C182.7 244.7 228.3 247.3 274 243.8C319.7 240.3 365.3 230.7 411.2 226.5C457 222.3 503 223.7 548.8 228.2C594.7 232.7 640.3 240.3 686 240.8C731.7 241.3 777.3 234.7 823 230.8C868.7 227 914.3 226 937.2 225.5L960 225L960 301L937.2 301C914.3 301 868.7 301 823 301C777.3 301 731.7 301 686 301C640.3 301 594.7 301 548.8 301C503 301 457 301 411.2 301C365.3 301 319.7 301 274 301C228.3 301 182.7 301 137 301C91.3 301 45.7 301 22.8 301L0 301Z" fill="#008cff"></path><path d="M0 248L22.8 249.2C45.7 250.3 91.3 252.7 137 251.8C182.7 251 228.3 247 274 247C319.7 247 365.3 251 411.2 250.8C457 250.7 503 246.3 548.8 247.7C594.7 249 640.3 256 686 260C731.7 264 777.3 265 823 265.8C868.7 266.7 914.3 267.3 937.2 267.7L960 268L960 301L937.2 301C914.3 301 868.7 301 823 301C777.3 301 731.7 301 686 301C640.3 301 594.7 301 548.8 301C503 301 457 301 411.2 301C365.3 301 319.7 301 274 301C228.3 301 182.7 301 137 301C91.3 301 45.7 301 22.8 301L0 301Z" fill="#007aff"></path><path d="M0 286L22.8 282.2C45.7 278.3 91.3 270.7 137 268.7C182.7 266.7 228.3 270.3 274 270.2C319.7 270 365.3 266 411.2 267.8C457 269.7 503 277.3 548.8 277.3C594.7 277.3 640.3 269.7 686 269.2C731.7 268.7 777.3 275.3 823 277.3C868.7 279.3 914.3 276.7 937.2 275.3L960 274L960 301L937.2 301C914.3 301 868.7 301 823 301C777.3 301 731.7 301 686 301C640.3 301 594.7 301 548.8 301C503 301 457 301 411.2 301C365.3 301 319.7 301 274 301C228.3 301 182.7 301 137 301C91.3 301 45.7 301 22.8 301L0 301Z" fill="#0066ff"></path></svg>